PathFileType	4	(X/Y/Z)	C:/Users/opensim2020/Desktop/walking_exp_matlab/subject02_walking14_straight_01.trc	
DataRate	CameraRate	NumFrames	NumMarkers	Units	OrigDataRate	OrigDataStartFrame	OrigNumFrames	
100.00	100.00	6	41	mm	100.00	357	131	
Frame#	Time	LFHD			RFHD			LBHD			RBHD			C7			T10			CLAV			STRN			RBAK			LSHO			LUPA			LELB			LFRM			LWRA			LWRB			LFIN			RSHO			RUPA			RELB			RFRM			RWRA			RWRB			RFIN			LASI			RASI			LPSI			RPSI			LTHI			LKNE			LTIB			LANK			LHEE			LTOE			RTHI			RKNE			RTIB			RANK			RHEE			RTOE			*39			*40			
		X1	Y1	Z1	X2	Y2	Z2	X3	Y3	Z3	X4	Y4	Z4	X5	Y5	Z5	X6	Y6	Z6	X7	Y7	Z7	X8	Y8	Z8	X9	Y9	Z9	X10	Y10	Z10	X11	Y11	Z11	X12	Y12	Z12	X13	Y13	Z13	X14	Y14	Z14	X15	Y15	Z15	X16	Y16	Z16	X17	Y17	Z17	X18	Y18	Z18	X19	Y19	Z19	X20	Y20	Z20	X21	Y21	Z21	X22	Y22	Z22	X23	Y23	Z23	X24	Y24	Z24	X25	Y25	Z25	X26	Y26	Z26	X27	Y27	Z27	X28	Y28	Z28	X29	Y29	Z29	X30	Y30	Z30	X31	Y31	Z31	X32	Y32	Z32	X33	Y33	Z33	X34	Y34	Z34	X35	Y35	Z35	X36	Y36	Z36	X37	Y37	Z37	X38	Y38	Z38	X39	Y39	Z39	X40	Y40	Z40	X41	Y41	Z41	

17	0.160	1381.77490	-656.83936	1693.31677	1524.91284	-671.30493	1678.11792	1362.64819	-790.50397	1628.49988	1502.85083	-818.31372	1612.48804	1426.84509	-860.71515	1489.03223	1432.18689	-924.20142	1216.28723	1429.11609	-725.48700	1415.96875	1435.80640	-680.81433	1241.88696	1480.71436	-933.03632	1314.77820	1256.37756	-774.25897	1465.41077	1163.07739	-736.75684	1278.57483	1139.36621	-684.74457	1145.29871	1144.79919	-588.80750	1051.37207	1196.15613	-470.23975	1005.36346	1162.89526	-499.14334	970.49548	1163.97131	-438.89362	945.46631	1618.38892	-811.03003	1449.68738	1693.35278	-899.59198	1283.33569	1723.22278	-929.39404	1142.08643	1751.66199	-935.30408	1023.15546	1742.92969	-919.06500	886.71893	1768.47803	-968.09033	897.51013	1775.97913	-951.22766	826.70801	1294.94983	-730.26581	935.84210	1551.50476	-700.80609	941.78149	1395.93872	-924.16589	995.83594	1508.83630	-921.70203	999.83405	1264.66199	-869.74615	639.57312	1302.56201	-951.91504	455.50211	1304.11414	-1077.86609	306.59238	1343.39124	-1164.88513	99.76767	1392.56006	-1210.36169	86.95318	1340.84937	-1024.79150	26.75592	1656.65881	-694.67120	663.96826	1625.59412	-631.29681	464.08899	1645.59058	-615.51624	277.50473	1626.50562	-569.85767	86.88501	1573.34448	-583.43512	26.26535	1644.26953	-408.14587	72.76290	1461.18298	-760.14349	1768.19885	-3357.26587	2846.01733	1034.38440 
18	0.170	1384.85046	-645.30811	1693.03918	1528.01733	-659.33661	1677.93616	1366.09290	-778.97241	1627.96143	1506.35815	-806.27252	1611.89661	1430.58911	-848.63037	1488.21777	1436.09253	-910.66064	1214.99463	1432.39966	-712.97333	1415.76746	1439.31287	-667.07416	1242.15588	1484.39099	-919.80560	1313.38843	1260.09924	-762.60016	1465.12756	1166.09009	-725.39880	1278.77710	1141.22913	-673.52637	1145.71338	1146.29541	-576.02643	1052.50378	1197.19580	-456.93134	1008.49664	1164.45471	-485.37665	972.70886	1165.12671	-425.22552	948.51636	1621.82080	-798.38800	1449.27490	1696.81592	-885.95068	1282.41968	1726.30286	-915.39392	1141.13196	1754.84155	-921.81116	1022.19861	1746.47449	-905.91052	885.84735	1771.89294	-954.93933	896.83875	1779.57666	-938.50012	826.00854	1298.53577	-714.70227	935.53760	1555.44397	-685.20270	942.88068	1400.12341	-908.83380	994.72485	1512.75818	-906.52527	998.61401	1266.85107	-855.60742	639.96399	1303.71326	-937.85114	456.11288	1304.92041	-1068.30127	311.07379	1342.42847	-1161.07202	106.22048	1391.62341	-1206.11121	95.20669	1340.46692	-1024.38281	26.68553	1658.82031	-676.97943	664.05365	1629.16040	-617.79712	463.22580	1644.52893	-605.18414	275.00269	1627.36133	-563.49249	85.73785	1574.51819	-581.33795	28.66440	1641.17627	-400.45972	61.37066	1464.49573	-748.58301	1767.74158	-3357.15601	2846.02002	1034.33313 
19	0.180	1387.98022	-633.54285	1693.49988	1531.18091	-647.31732	1678.32263	1369.48401	-767.04303	1627.91687	1509.87610	-794.12292	1611.92432	1434.35266	-836.71637	1487.55042	1440.27979	-896.89014	1214.44666	1435.81238	-700.24445	1415.93616	1442.76929	-653.26044	1242.95264	1487.88611	-906.44037	1312.57251	1263.75085	-751.07153	1465.10596	1168.81653	-714.29858	1279.06824	1143.26501	-662.24164	1146.15015	1147.88403	-564.07043	1053.79614	1198.67188	-444.22852	1011.10382	1165.49146	-472.37805	975.07153	1167.02417	-411.39505	951.19788	1624.99744	-785.91949	1449.02612	1700.46313	-872.11151	1281.59814	1729.51733	-901.15955	1140.36694	1758.14392	-907.81384	1021.51343	1750.05627	-892.21692	885.08185	1775.38074	-941.24353	896.31189	1783.28992	-925.05859	825.46973	1302.66321	-698.33582	935.63867	1559.54016	-669.91089	944.27863	1404.39355	-893.53876	993.89227	1516.76770	-890.73798	997.91595	1269.68469	-840.57385	640.10602	1304.79236	-922.75757	457.04031	1305.78564	-1057.63843	315.97812	1341.25244	-1156.32446	113.55029	1390.63684	-1200.85156	104.73093	1340.09399	-1023.98254	26.65005	1660.70117	-662.35815	663.67938	1632.55066	-603.87268	463.13361	1645.24829	-594.14075	274.98587	1630.58545	-556.23828	86.16381	1577.26306	-578.88837	30.75649	1639.55322	-394.28146	49.68521	1467.88037	-736.94586	1767.87402	-3357.37134	2845.87842	1034.33252 
20	0.190	1391.11414	-621.78607	1694.49792	1534.34302	-635.22217	1679.29346	1372.90149	-755.16711	1628.51331	1513.27393	-781.82404	1612.39893	1438.12048	-824.81232	1487.50085	1444.14575	-883.14435	1214.25793	1439.14575	-687.75616	1416.86414	1446.14526	-639.72229	1244.23230	1491.39063	-893.06909	1312.09351	1267.17346	-739.62848	1465.53223	1171.85144	-703.20013	1279.49207	1145.18433	-651.94116	1146.65186	1149.28540	-552.99689	1054.93872	1199.83435	-432.56039	1013.17780	1166.95093	-460.42593	976.76587	1168.02661	-399.16058	953.75763	1628.79248	-772.74945	1449.16394	1704.02808	-857.97412	1280.99780	1732.69116	-886.51160	1139.77075	1761.52173	-893.21814	1021.19604	1753.60754	-877.94781	884.47528	1778.75598	-927.05188	895.94647	1786.98157	-911.00385	825.13782	1307.04395	-681.94104	936.27545	1563.73816	-654.39771	946.06915	1408.61548	-878.40399	993.68573	1521.05884	-874.67676	998.26740	1272.50671	-824.75659	640.88629	1305.38599	-906.15607	458.00842	1306.62122	-1045.52698	321.48169	1340.28442	-1150.49939	121.96478	1390.11633	-1194.07373	115.46235	1339.68970	-1023.64417	26.61063	1664.66296	-649.61218	663.98462	1635.66443	-587.68671	465.36240	1650.80481	-582.15411	277.79105	1632.90881	-549.31702	86.28606	1580.48340	-576.80383	32.35233	1637.95874	-390.00348	45.54707	1471.27258	-725.15485	1768.53235	-3357.29736	2845.88257	1034.26428 
21	0.200	1394.23682	-610.05560	1695.89099	1537.45630	-623.15326	1680.53552	1376.24756	-743.30066	1629.61035	1516.68604	-769.69531	1613.46362	1441.88025	-812.64087	1488.20923	1447.64453	-869.30670	1214.41406	1442.49133	-675.23761	1418.20032	1449.75928	-625.87384	1246.02722	1495.31689	-879.94104	1312.55518	1270.37708	-728.26337	1466.41663	1174.85571	-692.40100	1280.28357	1147.46460	-641.63141	1147.16138	1150.83960	-542.59467	1055.97314	1201.30127	-421.54465	1014.77368	1168.03735	-449.01135	978.35931	1169.77319	-388.15091	955.13312	1632.64246	-759.77142	1449.87048	1707.78137	-843.52130	1280.70496	1735.83630	-871.37476	1139.24805	1764.89478	-878.30646	1020.85516	1757.24170	-863.05011	884.25787	1782.13904	-912.27686	895.77924	1790.67261	-896.18323	825.01538	1311.83276	-665.66632	937.19336	1567.83899	-638.99817	948.09198	1412.78369	-862.98578	993.93018	1525.33423	-858.65302	999.44061	1275.50867	-808.03851	641.43848	1305.68433	-888.16699	459.30673	1307.41211	-1031.60779	327.27481	1339.63477	-1142.94019	130.96877	1390.47559	-1184.86084	126.82302	1339.42493	-1023.20166	26.52477	1668.47412	-638.44434	663.74042	1636.74451	-570.51031	467.75043	1653.99036	-568.65033	281.04437	1632.56567	-545.36200	87.14060	1579.80371	-575.58350	33.15694	1642.22388	-389.49600	41.50845	1474.60413	-713.50110	1769.66382	-3357.54370	2845.96289	1034.40125 
22	0.210	1397.30359	-598.22791	1697.58630	1540.56238	-611.12225	1682.06213	1379.43494	-731.26593	1631.09485	1519.90649	-757.44086	1614.54199	1445.57983	-800.26489	1489.42651	1450.93689	-855.55188	1214.86182	1445.68774	-662.84961	1419.91724	1453.16602	-612.60114	1248.02515	1499.21375	-866.60095	1313.21106	1273.40051	-716.78210	1467.57349	1177.81348	-681.57623	1281.34204	1149.82507	-631.84644	1147.69934	1152.32727	-533.06995	1057.01367	1202.64624	-411.40985	1016.07532	1169.12146	-438.73865	979.32391	1171.16028	-377.48132	956.41278	1636.52625	-746.49518	1450.80017	1711.31335	-829.08374	1280.64441	1739.02161	-855.71503	1139.02747	1768.22302	-862.79889	1020.82751	1760.78320	-847.53992	884.27759	1785.65649	-896.75214	895.92969	1794.32495	-880.66479	825.16321	1317.08801	-649.55902	938.45361	1571.89441	-624.00275	950.07550	1416.50000	-847.26593	994.82178	1529.68884	-843.03210	1001.47638	1278.33643	-790.56366	642.25385	1305.83606	-868.05371	460.55762	1308.50146	-1015.71460	333.41104	1339.53796	-1133.34790	140.72751	1391.33020	-1173.39221	138.98376	1339.21765	-1022.56134	26.61037	1670.70410	-627.44501	663.84845	1637.69824	-554.42676	469.41501	1656.02344	-556.16058	282.82407	1630.83850	-543.79584	88.13113	1579.65442	-574.54413	33.57679	1640.95105	-387.74005	40.03349	1477.94287	-701.67273	1771.05371	-3357.32031	2845.92603	1034.50610 
